<svg width="48" height="48" viewBox="0 0 48 48" fill="none" xmlns="http://www.w3.org/2000/svg">
<path fill-rule="evenodd" clip-rule="evenodd" d="M15 19.125C15 18.5037 15.5037 18 16.125 18H31.875C32.4963 18 33 18.5037 33 19.125C33 19.7463 32.4963 20.25 31.875 20.25H16.125C15.5037 20.25 15 19.7463 15 19.125ZM15 24C15 23.3787 15.5037 22.875 16.125 22.875H31.875C32.4963 22.875 33 23.3787 33 24C33 24.6213 32.4963 25.125 31.875 25.125H16.125C15.5037 25.125 15 24.6213 15 24ZM15 28.875C15 28.2537 15.5037 27.75 16.125 27.75H31.875C32.4963 27.75 33 28.2537 33 28.875C33 29.4963 32.4963 30 31.875 30H16.125C15.5037 30 15 29.4963 15 28.875Z" fill="#424242"/>
</svg>
